<svg xmlns="http://www.w3.org/2000/svg" viewBox="0 0 200 200" width="200" height="200">
  <title>デフォルトユーザーアバター</title>
  <circle cx="100" cy="100" r="100" fill="#6366f1"/>
  <g transform="translate(0,200) scale(0.100,-0.100)" fill="#ffffff">
    <path d="M864 1829 c-113 -39 -202 -125 -244 -236 -18 -49 -21 -73 -18 -153 3
    -79 9 -104 32 -150 36 -72 114 -151 185 -186 51 -27 65 -29 166 -29 98 0 116
    3 165 26 165 79 260 268 220 440 -27 116 -117 226 -226 276 -79 36 -196 41
    -280 12z m241 -112 c52 -29 85 -79 85 -129 0 -54 -18 -84 -89 -150 -49 -45
    -61 -62 -61 -87 0 -31 -1 -31 -50 -31 l-50 0 0 47 c0 44 4 50 66 112 83 83 89
    94 73 132 -15 37 -36 49 -89 49 -33 0 -48 -6 -71 -29 -16 -16 -29 -37 -29 -45
    0 -17 -43 -21 -87 -8 -20 7 -21 9 -8 45 21 62 66 99 140 118 45 11 125 0 170
    -24z m-57 -494 l3 -53 -55 0 -56 0 0 56 0 55 53 -3 52 -3 3 -52z"/>
    <path d="M619 1036 c-161 -56 -276 -188 -324 -371 -24 -96 -21 -112 38 -190
    75 -98 174 -178 292 -236 319 -155 662 -105 895 131 41 41 90 102 109 134 l35
    58 -12 72 c-18 108 -78 220 -154 291 -57 53 -182 125 -217 125 -7 0 -28 -9
    -46 -20 -136 -84 -325 -87 -476 -8 -35 18 -66 34 -69 35 -3 1 -35 -9 -71 -21z"/>
  </g>
</svg>